<?xml version="1.0" encoding="UTF-8"?>
<svg id="_图层_1" data-name="图层 1" xmlns="http://www.w3.org/2000/svg" viewBox="0 0 3803.83 918.19">
  <defs>
    <style>
      .cls-1 {
        fill: none;
      }

      .cls-2 {
        fill: #fff;
        fill-rule: evenodd;
      }

      .cls-3 {
        fill: #4d4d4d;
      }

      .cls-4 {
        fill: #efba19;
      }
    </style>
  </defs>
  <g>
    <path class="cls-3" d="M1139.37,338.23c11.71.04,23.23-2.94,33.45-8.65,10.52-5.61,19.78-13.34,27.18-22.67,7.72-9.88,13.79-20.94,17.98-32.76,4.42-12.21,6.66-25.1,6.64-38.08.7-13.17-2.11-26.3-8.14-38.02-5.38-9.08-15.41-13.71-29.94-13.71-6.33.22-12.63,1.08-18.79,2.57-7.65,1.71-14.73,5.38-20.55,10.65l-33.2,138.8,5.33,1c1.58.39,3.2.64,4.82.75,2.08.26,4.17.36,6.26.31l8.96-.19h0ZM1205.32,121.26c14.5-.33,28.89,2.62,42.09,8.65,11.45,5.46,21.52,13.45,29.44,23.36,8.11,10.26,14.07,22.03,17.54,34.63,3.8,13.9,5.67,28.25,5.57,42.66-.02,44.83-17.39,87.9-48.48,120.2-15.07,15.46-33,27.83-52.8,36.45-20.76,9.14-43.21,13.8-65.89,13.66h-16.04c-8.72-.28-17.42-1.03-26.06-2.25-10.55-1.53-21-3.62-31.32-6.26-10.81-2.57-21.31-6.3-31.32-11.15L1116.07,12.53l78.61-12.53-31.32,130.85c6.52-2.95,13.29-5.32,20.23-7.08,7.15-1.74,14.5-2.61,21.86-2.57l-.13.06h0Z"/>
    <path class="cls-3" d="M1417.72,94.38c-10.25.1-20.24-3.18-28.44-9.33-8.69-6.88-13.39-17.63-12.53-28.69-.04-6.9,1.43-13.72,4.32-19.98,2.76-6.1,6.65-11.63,11.46-16.28,4.81-4.57,10.39-8.26,16.47-10.9,6.33-2.72,13.15-4.1,20.04-4.07,10.17-.03,20.07,3.27,28.19,9.39,8.68,6.89,13.37,17.64,12.53,28.69.05,6.91-1.4,13.75-4.26,20.04-2.76,6.07-6.63,11.57-11.4,16.22-4.8,4.59-10.37,8.28-16.47,10.9-6.33,2.72-13.15,4.09-20.04,4.01h.13ZM1381.2,393.72h-75.16l63.51-266.83h75.6l-63.95,266.83h0Z"/>
    <path class="cls-3" d="M1510.92,60.44l78.6-12.15-19.54,78.61h84.19l-15.17,61.88h-83.49l-22.3,93.08c-1.93,7.13-3.13,14.43-3.57,21.8-.46,5.96.42,11.95,2.57,17.53,2.1,5.01,5.98,9.05,10.9,11.34,7.08,3.13,14.81,4.55,22.55,4.14,7.93.03,15.84-.75,23.61-2.32,7.82-1.53,15.53-3.62,23.05-6.26l5.64,57.87c-10.79,3.88-21.82,7.08-33.01,9.58-13.83,2.94-27.95,4.3-42.09,4.07-23.36,0-41.4-3.51-54.31-10.4-12.07-6.14-21.74-16.15-27.43-28.44-5.56-13.04-7.99-27.2-7.08-41.34.84-16.59,3.21-33.07,7.08-49.23l49.8-210.01v.25h0Z"/>
    <path class="cls-3" d="M1651.41,287.18c-.16-22.13,3.61-44.13,11.15-64.95,7.07-19.68,17.92-37.79,31.94-53.3,14.14-15.38,31.33-27.63,50.48-35.96,20.89-9.02,43.45-13.52,66.2-13.21,13.74-.16,27.45,1.29,40.84,4.32,11.26,2.67,22.21,6.49,32.7,11.4l-26.12,58.69c-6.76-2.76-13.78-5.13-21.05-7.33-8.66-2.41-17.63-3.53-26.62-3.32-22.71-.82-44.56,8.78-59.32,26.06-14.66,17.24-22.01,40.42-22.05,69.53-.69,14.76,3.21,29.38,11.15,41.85,7.43,10.65,21.13,15.96,41.09,15.96,9.57,0,19.1-1.02,28.44-3.07,8.33-1.78,16.49-4.31,24.37-7.58l5.57,60.39c-10.25,3.88-20.7,7.18-31.32,9.89-13.48,3.04-27.27,4.47-41.09,4.27-18.34.53-36.6-2.56-53.74-9.09-13.63-5.49-25.9-13.89-35.95-24.61-9.54-10.39-16.59-22.82-20.6-36.33-4.25-14.22-6.36-29-6.26-43.84l.19.25h0Z"/>
    <path class="cls-3" d="M2022.27,183.77c-10.6-.15-20.96,3.22-29.44,9.58-8.6,6.66-15.82,14.94-21.23,24.37-5.96,10.03-10.43,20.88-13.28,32.2-2.76,10.85-4.19,21.99-4.26,33.19-.68,13.67,2.11,27.28,8.08,39.59,5.45,9.46,15.22,14.22,29.44,14.22,10.62.18,20.99-3.22,29.44-9.65,8.62-6.66,15.85-14.94,21.29-24.36,5.87-10.05,10.24-20.89,12.97-32.2,2.72-10.87,4.16-22.04,4.25-33.26.7-13.66-2.09-27.28-8.08-39.59-5.45-9.39-15.28-14.16-29.44-14.16l.25.06h0ZM1984.69,400.86c-15.96.37-31.83-2.4-46.73-8.14-12.53-4.94-23.73-12.74-32.7-22.8-8.82-10.13-15.46-21.96-19.54-34.76-4.43-14.35-6.55-29.33-6.26-44.34.05-20.68,3.36-41.23,9.84-60.88,6.28-19.78,16.09-38.25,28.93-54.55,12.9-16.3,28.94-29.85,47.16-39.83,19.62-10.55,41.62-15.88,63.89-15.47,15.87-.29,31.65,2.48,46.48,8.14,12.55,4.86,23.8,12.56,32.88,22.49,8.77,10.16,15.4,21.98,19.48,34.76,4.46,14.37,6.58,29.36,6.26,44.41-.06,20.66-3.3,41.2-9.58,60.88-6.17,19.8-15.8,38.35-28.44,54.81-12.71,16.37-28.69,29.91-46.91,39.78-19.92,10.6-42.2,15.95-64.76,15.53h0Z"/>
    <path class="cls-3" d="M2253.08,94.38c-10.23.11-20.21-3.17-28.37-9.33-8.7-6.88-13.4-17.63-12.53-28.69-.04-6.9,1.43-13.72,4.32-19.98,2.69-6.07,6.46-11.59,11.15-16.28,4.84-4.56,10.44-8.25,16.54-10.9,6.31-2.71,13.11-4.1,19.99-4.07,10.25-.09,20.25,3.22,28.44,9.39,8.68,6.89,13.37,17.64,12.53,28.69.01,6.92-1.48,13.76-4.39,20.04-2.71,6.07-6.57,11.58-11.33,16.22-4.8,4.59-10.37,8.28-16.47,10.9-6.28,2.69-13.03,4.06-19.86,4.01h0ZM2216.63,393.72h-75.16l63.39-266.83h75.66l-63.89,266.83h0Z"/>
    <path class="cls-3" d="M2334.63,139.04c5.7-1.63,12.03-3.63,18.79-5.82,6.76-2.19,14.66-4.2,23.36-6.26,9.55-2.02,19.18-3.55,28.88-4.57,12.05-1.27,24.15-1.88,36.27-1.82,39.59,0,66.89,11.5,81.93,34.51,9,13.78,13.56,30.59,13.66,50.44v1.43c-.07,12.91-1.99,27.08-5.77,42.52l-34.51,144.06h-75.41l33.51-141.06c2-8.76,3.63-17.28,4.83-25.61,1.3-7.21,1.3-14.59,0-21.8-1.24-6.02-4.57-11.41-9.39-15.22-6.68-4.38-14.64-6.43-22.61-5.83-10.04.02-20.05,1.05-29.88,3.07l-49.23,206.69h-75.86l61.45-254.74h0Z"/>
  </g>
  <g>
    <path class="cls-3" d="M1084.57,580.36l78.04-12.09-19.13,78.04h83.58l-15.1,61.42h-83.07l-22.15,92.64c-2.02,7.73-3.27,14.94-3.78,21.65-.5,6.72.33,12.51,2.52,17.37,2.18,4.87,5.95,8.65,11.33,11.33,5.37,2.69,12.75,4.03,22.15,4.03,8.06,0,15.86-.76,23.41-2.27,7.56-1.51,15.19-3.6,22.91-6.29l5.54,57.39c-10.07,3.7-20.98,6.88-32.72,9.57-11.75,2.68-25.68,4.03-41.79,4.03-23.16,0-41.12-3.45-53.87-10.32-12.76-6.87-21.82-16.28-27.19-28.19-5.38-11.91-7.73-25.59-7.05-41.03.67-15.44,3.02-31.72,7.05-48.84l49.34-208.44Z"/>
    <path class="cls-3" d="M1400.75,641.79c14.43,0,26.85,2.1,37.26,6.29,10.4,4.2,18.96,10.07,25.68,17.62,6.71,7.55,11.75,16.54,15.1,26.94,3.35,10.41,5.03,21.65,5.03,33.73,0,14.1-1.68,28.03-5.03,41.79l-34.24,142.99h-75.02l33.23-139.96c1.34-5.7,2.6-11.75,3.78-18.13,1.17-6.37,1.76-12.41,1.76-18.12,0-8.73-2.26-16.19-6.8-22.41-4.53-6.21-13.18-9.31-25.93-9.31-5.37,0-10.49.34-15.36,1.01-4.87.68-9.65,1.51-14.35,2.52l-48.84,204.41h-75.02l90.62-378.61,78.04-12.08-30.71,126.37c6.71-1.34,13.51-2.52,20.39-3.52,6.88-1.01,13.67-1.51,20.39-1.51Z"/>
    <path class="cls-3" d="M1783.89,646.32l-35.75,150.54c-4.7,19.13-6.04,38.35-4.03,57.65,2.01,19.31,5.87,36.5,11.58,51.61l-66.96,9.57c-3.7-7.38-7.22-15.61-10.57-24.67-9.4,7.39-19.97,13.6-31.72,18.63-11.75,5.04-24.84,7.55-39.27,7.55-19.81,0-35.83-3.61-48.08-10.82-12.26-7.21-21.4-16.78-27.44-28.7-6.04-11.91-9.32-25.59-9.82-41.04-.51-15.43,1.26-31.21,5.29-47.33l34.24-142.98h75.02l-33.73,141.98c-1.69,7.39-3.11,14.94-4.28,22.66-1.18,7.72-1.26,14.85-.25,21.4,1.01,6.54,3.61,11.92,7.8,16.11,4.19,4.2,10.82,6.29,19.89,6.29,7.72,0,14.85-1.42,21.4-4.28,6.55-2.85,13.51-7.8,20.89-14.85.67-8.39,1.76-17.2,3.27-26.43,1.51-9.23,3.1-17.7,4.78-25.43l32.73-137.45h75.02Z"/>
    <path class="cls-3" d="M1859.92,658.4c5.7-1.68,11.99-3.6,18.88-5.79,6.87-2.18,14.6-4.19,23.16-6.04,8.56-1.84,18.13-3.35,28.7-4.53,10.57-1.17,22.57-1.76,36-1.76,39.6,0,66.79,11.42,81.56,34.24,14.76,22.83,17.28,54.05,7.55,93.65l-34.24,142.99h-75.02l33.23-139.96c2.02-8.73,3.61-17.2,4.79-25.43,1.17-8.22,1.08-15.44-.25-21.65-1.35-6.21-4.45-11.24-9.31-15.1-4.87-3.85-12.33-5.79-22.41-5.79s-19.64,1.01-29.7,3.02l-48.84,204.91h-75.02l60.92-252.74Z"/>
    <path class="cls-3" d="M2193.72,918.19c-16.79,0-31.14-2.86-43.05-8.56-11.92-5.7-21.65-13.51-29.2-23.41-7.55-9.9-13.09-21.48-16.62-34.74-3.52-13.26-5.29-27.44-5.29-42.54,0-22.82,4.11-44.39,12.33-64.7,8.22-20.31,19.55-38.01,33.99-53.12,14.43-15.1,31.54-27.01,51.35-35.75,19.8-8.72,41.45-13.09,64.95-13.09,6.04,0,11.65.34,16.87,1.01,5.2.68,10.49,1.68,15.86,3.02l27.19-113.79,78.04-12.08-66.45,276.41c-4.71,19.13-6.04,38.35-4.03,57.65,2.01,19.31,5.87,36.5,11.58,51.61l-66.96,9.57c-2.01-4.03-3.86-7.88-5.54-11.58-1.69-3.69-3.36-7.88-5.03-12.58-9.4,7.72-19.89,14.1-31.47,19.13-11.58,5.03-24.42,7.55-38.52,7.55ZM2280.32,706.23c-2.01-.33-3.78-.67-5.29-1.01-1.51-.33-3.02-.58-4.53-.76-1.51-.17-3.45-.25-5.79-.25h-9.06c-11.75,0-22.66,2.77-32.73,8.31-10.07,5.54-18.71,13.01-25.93,22.41-7.22,9.4-12.84,20.06-16.87,31.97-4.03,11.92-6.04,24.09-6.04,36.5,0,16.11,2.77,28.78,8.31,38.01,5.54,9.23,15.52,13.84,29.96,13.84,7.72,0,14.77-1.51,21.15-4.53,6.37-3.02,13.09-8.05,20.14-15.1.67-8.39,1.76-17.2,3.27-26.43,1.51-9.23,3.1-17.7,4.78-25.43l18.63-77.53Z"/>
    <path class="cls-3" d="M2396.62,807.43c0-21.48,3.77-42.29,11.33-62.43,7.55-20.14,18.2-38.01,31.97-53.62,13.76-15.61,30.46-28.19,50.1-37.76,19.63-9.57,41.36-14.35,65.2-14.35,11.75,0,22.66,1.68,32.72,5.03,10.07,3.36,18.88,8.23,26.43,14.6,7.56,6.38,13.42,14.18,17.62,23.41,4.19,9.23,6.29,19.72,6.29,31.47,0,18.8-4.2,34.74-12.59,47.83-8.39,13.09-20.06,23.75-34.99,31.97-14.94,8.23-32.65,14.18-53.12,17.87-20.47,3.7-42.79,5.54-66.96,5.54,2.34,14.1,7.46,24.09,15.36,29.96,7.88,5.88,20.39,8.81,37.51,8.81,10.74,0,21.65-.92,32.73-2.77,11.07-1.84,21.47-4.61,31.21-8.31l5.54,58.91c-9.4,3.7-21.4,7.05-36,10.07-14.6,3.02-30.46,4.53-47.58,4.53-20.82,0-38.35-2.94-52.61-8.81-14.27-5.87-25.85-13.85-34.74-23.92-8.89-10.07-15.35-21.81-19.38-35.24-4.03-13.42-6.04-27.69-6.04-42.8ZM2543.13,698.68c-17.11,0-32.14,6.13-45.06,18.38-12.92,12.25-21.4,28.44-25.43,48.58,20.81-.67,37.59-2.43,50.35-5.29,12.75-2.85,22.66-6.29,29.7-10.32,7.05-4.03,11.75-8.39,14.1-13.09,2.34-4.7,3.52-9.39,3.52-14.1,0-16.11-9.06-24.17-27.19-24.17Z"/>
    <path class="cls-3" d="M2850.75,710.76c-6.72-1.68-13.34-3.27-19.88-4.78-6.55-1.51-16.2-2.27-28.95-2.27-4.71,0-9.91.42-15.61,1.26-5.71.84-10.41,1.76-14.1,2.77l-48.84,203.4h-75.02l60.42-250.73c14.43-4.7,30.63-9.14,48.58-13.34,17.95-4.19,38.18-6.29,60.67-6.29,8.39,0,17.7.75,27.94,2.26,10.23,1.51,19.21,3.95,26.93,7.3l-22.15,60.42Z"/>
    <path class="cls-3" d="M3032.51,640.78c16.11,0,30.03,2.85,41.79,8.56,11.75,5.71,21.48,13.43,29.2,23.16,7.72,9.74,13.42,21.15,17.12,34.24,3.69,13.09,5.54,27.19,5.54,42.29,0,23.16-4.28,45.06-12.84,65.7-8.56,20.64-20.22,38.6-34.99,53.87-14.77,15.28-32.22,27.36-52.36,36.25-20.14,8.89-41.96,13.34-65.46,13.34-3.02,0-8.3-.09-15.86-.25-7.55-.17-16.2-.93-25.93-2.27-9.74-1.35-20.06-3.36-30.97-6.04-10.91-2.68-21.23-6.37-30.96-11.08l87.1-366.02,78.04-12.08-31.22,129.9c6.71-3.02,13.42-5.37,20.14-7.05,6.71-1.68,13.92-2.52,21.65-2.52ZM2967.05,856.27c11.75,0,22.82-2.85,33.23-8.56,10.4-5.7,19.38-13.34,26.94-22.91,7.55-9.57,13.51-20.39,17.87-32.47,4.36-12.08,6.54-24.67,6.54-37.76,0-16.11-2.69-28.7-8.05-37.76-5.38-9.06-15.28-13.59-29.71-13.59-4.7,0-10.82.84-18.38,2.52-7.55,1.68-14.35,5.21-20.39,10.57l-33.23,137.95c2.01.34,3.77.68,5.29,1.01,1.51.34,3.1.59,4.78.76,1.68.17,3.69.25,6.04.25h9.06Z"/>
    <path class="cls-3" d="M3266.12,918.19c-17.8,0-33.23-2.69-46.32-8.06-13.09-5.36-23.92-12.92-32.47-22.66-8.56-9.73-15.03-21.22-19.38-34.49-4.37-13.26-6.55-27.94-6.55-44.05,0-20.14,3.27-40.28,9.82-60.42,6.55-20.14,16.19-38.27,28.95-54.38,12.75-16.11,28.36-29.28,46.82-39.52,18.46-10.23,39.6-15.35,63.44-15.35,17.45,0,32.8,2.69,46.06,8.05,13.26,5.37,24.17,12.92,32.73,22.66,8.56,9.74,15.02,21.23,19.38,34.49,4.36,13.26,6.55,27.94,6.55,44.05,0,20.14-3.2,40.28-9.57,60.42-6.38,20.14-15.78,38.26-28.19,54.38-12.42,16.11-27.94,29.29-46.57,39.52s-40.2,15.36-64.7,15.36ZM3303.38,702.7c-11.08,0-20.82,3.2-29.2,9.57-8.39,6.38-15.44,14.43-21.14,24.16-5.71,9.74-9.99,20.39-12.84,31.97-2.85,11.58-4.28,22.58-4.28,32.98,0,17.12,2.68,30.3,8.05,39.52,5.37,9.24,15.1,13.85,29.2,13.85,11.08,0,20.81-3.18,29.2-9.57,8.39-6.37,15.44-14.43,21.14-24.17,5.71-9.73,9.99-20.39,12.84-31.97,2.85-11.58,4.28-22.57,4.28-32.98,0-17.12-2.69-30.29-8.05-39.52-5.38-9.23-15.1-13.85-29.2-13.85Z"/>
    <path class="cls-3" d="M3545.04,916.18c-23.84,0-42.54-3.11-56.14-9.32-13.59-6.21-23.33-14.68-29.2-25.43-5.88-10.74-8.73-23.07-8.56-37,.17-13.92,2.09-28.78,5.79-44.56l63.94-267.34,78.04-12.08-69.98,290c-1.35,6.04-2.1,11.58-2.27,16.61-.17,5.04.76,9.49,2.77,13.34,2.02,3.86,5.45,6.97,10.32,9.31,4.86,2.35,11.66,3.86,20.39,4.53l-15.1,61.93Z"/>
    <path class="cls-3" d="M3661.35,580.36l78.04-12.09-19.13,78.04h83.58l-15.1,61.42h-83.08l-22.15,92.64c-2.01,7.73-3.27,14.94-3.77,21.65-.5,6.72.33,12.51,2.52,17.37,2.18,4.87,5.96,8.65,11.33,11.33,5.36,2.69,12.75,4.03,22.15,4.03,8.05,0,15.86-.76,23.41-2.27,7.55-1.51,15.18-3.6,22.91-6.29l5.54,57.39c-10.07,3.7-20.98,6.88-32.72,9.57-11.75,2.68-25.68,4.03-41.79,4.03-23.16,0-41.12-3.45-53.87-10.32-12.76-6.87-21.82-16.28-27.19-28.19-5.37-11.91-7.72-25.59-7.05-41.03.67-15.44,3.02-31.72,7.05-48.84l49.34-208.44Z"/>
  </g>
  <g>
    <rect class="cls-1" y="0" width="918.19" height="918.19"/>
    <path class="cls-4" d="M459.1,0h0C712.48,0,918.19,205.71,918.19,459.1h0c0,253.38-205.71,459.1-459.1,459.1h0C205.71,918.19,0,712.48,0,459.1h0C0,205.71,205.71,0,459.1,0Z"/>
    <path class="cls-2" d="M592.31,448.5l-129.66,327.37h-44.04l84.69-419,.15.04,167.49.06,53.51-86.11h46.55l-22.36,86.14h.07l-23.76,91.54-132.62-.06h-.02ZM147.2,270.87l23.09,86.14h-.06l9.4,34.88,9.31,34.74h.06l5.91,21.92,126.21-.06,40.74,116.39h37.13l23.53-116.44.81-3.99,1.9-9.43,15.79-78.14-17.66-.03v.03h-6.12v-.03l-.15.03-168.98.07-54.37-86.11h-46.54v.02Z"/>
  </g>
</svg>